<svg xmlns="http://www.w3.org/2000/svg" fill="currentColor" viewBox="0 0 48 48" class="ms-h-full ms-w-full"><g clip-path="url(#icon-suit-clubs_svg__a)"><path d="M47 27.468c0 6.422-5.277 11.629-11.786 11.629a11.8 11.8 0 0 1-10.403-6.16c.165 3.13.72 6.295 2.187 8.67 1.476 2.391 4.11 4.393 6.862 5.076v1.318H14.14v-1.318c2.752-.683 5.386-2.685 6.862-5.075 1.467-2.376 2.021-5.541 2.186-8.67a11.8 11.8 0 0 1-10.402 6.159C6.278 39.095 1 33.89 1 27.467c0-6.422 5.278-11.629 11.786-11.629q.112-.001.224.004a11.5 11.5 0 0 1-.797-4.212C12.215 5.207 17.49 0 24 0c6.51 0 11.786 5.207 11.786 11.63 0 1.485-.282 2.906-.797 4.211q.111-.004.225-.004c6.51 0 11.785 5.208 11.785 11.63z"></path></g><defs><clipPath id="icon-suit-clubs_svg__a"><path d="M0 0h48v48H0z"></path></clipPath></defs></svg>
