<svg xmlns="http://www.w3.org/2000/svg" fill="currentColor" viewBox="0 0 49 49" class="ms-h-full ms-w-full"><g clip-path="url(#icon-suit-spades_svg__a)"><path d="M2.515 27.91c0-11.849 11.849-15.633 22-27.753 10.15 12.12 22 15.904 22 27.753 0 7.337-5.715 11.622-11.126 11.622-4.457 0-8.438-3.393-10.124-6.513.123 3.205.629 6.498 2.11 8.937 1.409 2.32 3.922 4.261 6.549 4.924v1.277H15.105V46.88c2.627-.663 5.14-2.605 6.55-4.925 1.48-2.438 1.986-5.731 2.11-8.936-1.686 3.121-5.667 6.513-10.125 6.513-5.41 0-11.125-4.285-11.125-11.622"></path></g><defs><clipPath id="icon-suit-spades_svg__a"><path d="M.515.157h48v48h-48z"></path></clipPath></defs></svg>
